# xmcd
#
# Track frame offsets:
#	150
#	15812
#	24312
#	37425
#	50112
#	63160
#	76300
#	89075
#	99462
#	112175
#
# Disc length: 1632
#
# Revision: 2
# Processed by: cddbd v1.5.1PL0 Copyright (c) Steve Scherf et al.
# Submitted via: audiograbber 1.83.01
# Normalized: r1:DSETVAR1
#
DISCID=7f065e0a
DTITLE=Various Artist - Country Gospel Favorites
DYEAR=1900
DGENRE=Country
TTITLE0=Willie Nelson - Tell It To Jesus
TTITLE1=Conway Twitty - The Big Man Above
TTITLE2=Barbara Mandrell - Swing Low Sweet Chariot
TTITLE3=Red Folley - Will The Circle Be Unbroken
TTITLE4=Patsy Cline - Life's Railroad To Heaven
TTITLE5=Red Sovine - If Jesus Came To Your House
TTITLE6=Jordanairs - Just A Little Talk With Jesus
TTITLE7=Kitty Wells - Dust On The Bible
TTITLE8=Patsy Cline - Just A Closer Walk With Thee
TTITLE9=Lorretta Lynn - If I Could Hear My Mother Pray
EXTD=
EXTT0=
EXTT1=
EXTT2=
EXTT3=
EXTT4=
EXTT5=
EXTT6=
EXTT7=
EXTT8=
EXTT9=
PLAYORDER=
